# Blender 4.0.2
# www.blender.org
o AxeOverlay
v 0.137107 -0.078956 -3.262059
v 0.137107 0.078956 -3.262059
v 0.137107 -0.078956 -3.906198
v 0.137107 0.078956 -3.906198
v 0.000000 -0.116878 -3.906198
v 0.000000 0.116878 -3.906198
v 0.000000 -0.116878 -3.262059
v 0.000000 0.116878 -3.262059
v 0.380058 0.043857 -4.052594
v 0.380058 -0.043857 -4.052594
v 0.380058 -0.043857 -3.115663
v 0.380058 0.043857 -3.115663
v 0.510628 0.028001 -4.380956
v 0.510628 -0.028001 -4.380956
v 0.510628 -0.028001 -2.787301
v 0.510628 0.028001 -2.787301
v 0.750919 0.021656 -4.040196
v 0.750919 -0.021656 -4.040196
v 0.750919 -0.021656 -3.128061
v 0.750919 0.021656 -3.128061
v 0.831201 0.008402 -3.859073
v 0.837217 -0.008402 -3.848229
v 0.837217 -0.008402 -3.349508
v 0.831201 0.008402 -3.338664
v 0.866213 0.001825 -3.763300
v 0.866213 0.001825 -3.436779
v 0.258583 -0.058745 -3.188861
v 0.258583 0.058745 -3.188861
v 0.258583 -0.058745 -3.979396
v 0.258583 0.058745 -3.979396
v 0.101418 -0.048837 0.164165
v 0.101418 0.048837 0.164165
v 0.127087 -0.074275 0.011745
v 0.127087 0.074275 0.011745
v 0.000000 -0.149902 0.011745
v 0.000000 0.149902 0.011745
v 0.000000 -0.098564 0.164165
v 0.000000 0.098564 0.164165
v 0.000000 0.100000 -3.282615
v 0.100000 0.049549 -3.282615
v 0.100000 -0.049549 -3.282615
v 0.000000 -0.100000 -3.282615
v 0.069567 0.019391 0.213540
v 0.069567 -0.019391 0.213540
v 0.000000 -0.039134 0.213540
v 0.000000 0.039134 0.213540
v 0.100000 -0.049549 -0.112617
v 0.100000 0.049549 -0.112618
v 0.000000 -0.100000 -0.112617
v 0.000000 0.100000 -0.112617
v -0.100000 -0.046002 -3.754821
v -0.100000 0.046002 -3.754821
v -0.100000 -0.046002 -3.974821
v -0.100000 0.046002 -3.974821
v 0.100000 -0.046002 -3.754821
v 0.100000 0.046002 -3.754821
v 0.100000 -0.046002 -3.974821
v 0.100000 0.046002 -3.974821
v 0.000000 -0.099964 -3.974821
v 0.000000 0.099964 -3.974821
v 0.000000 -0.099964 -3.754821
v 0.000000 0.099964 -3.754821
v -0.137107 -0.078956 -3.262059
v -0.137107 0.078956 -3.262059
v -0.137107 -0.078956 -3.906198
v -0.137107 0.078956 -3.906198
v -0.380058 0.043857 -4.052594
v -0.380058 -0.043857 -4.052594
v -0.380058 -0.043857 -3.115663
v -0.380058 0.043857 -3.115663
v -0.510628 0.028001 -4.380956
v -0.510628 -0.028001 -4.380956
v -0.510628 -0.028001 -2.787301
v -0.510628 0.028001 -2.787301
v -0.750919 0.021656 -4.040196
v -0.750919 -0.021656 -4.040196
v -0.750919 -0.021656 -3.128061
v -0.750919 0.021656 -3.128061
v -0.831201 0.008402 -3.859073
v -0.837217 -0.008402 -3.848229
v -0.837217 -0.008402 -3.349508
v -0.831201 0.008402 -3.338664
v -0.866213 0.001825 -3.763300
v -0.866213 0.001825 -3.436779
v -0.258583 -0.058745 -3.188861
v -0.258583 0.058745 -3.188861
v -0.258583 -0.058745 -3.979396
v -0.258583 0.058745 -3.979396
v -0.101418 -0.048837 0.164165
v -0.101418 0.048837 0.164165
v -0.127087 -0.074275 0.011745
v -0.127087 0.074275 0.011745
v -0.100000 0.049549 -3.282615
v -0.100000 -0.049549 -3.282615
v -0.069567 0.019391 0.213540
v -0.069567 -0.019391 0.213540
v -0.100000 -0.049549 -0.112617
v -0.100000 0.049549 -0.112618
v 0.100000 -0.046002 -3.754821
v 0.100000 0.046002 -3.754821
v 0.100000 -0.046002 -3.974821
v 0.100000 0.046002 -3.974821
v -0.100000 -0.046002 -3.754821
v -0.100000 0.046002 -3.754821
v -0.100000 -0.046002 -3.974821
v -0.100000 0.046002 -3.974821
vn -0.0000 -0.0000 -1.0000
vn -0.5161 -0.0000 0.8565
vn 0.2666 -0.9638 -0.0000
vn 0.2666 0.9638 -0.0000
vn -0.0000 -0.0000 1.0000
vn -0.9292 -0.0000 0.3695
vn 0.1217 -0.9926 -0.0000
vn 0.1217 0.9926 -0.0000
vn -0.5161 -0.0000 -0.8565
vn 0.0264 0.9997 -0.0000
vn 0.1205 -0.9927 -0.0000
vn 0.1205 0.9927 -0.0000
vn -0.9292 -0.0000 -0.3695
vn 0.9130 0.0178 -0.4076
vn 0.8172 -0.0000 -0.5763
vn 0.8172 -0.0000 0.5763
vn 0.0264 -0.9997 -0.0000
vn 0.1846 0.9828 -0.0000
vn 0.9327 0.0285 0.3596
vn 0.1518 -0.9884 -0.0000
vn 0.1629 0.9866 -0.0000
vn 0.9351 0.1194 -0.3336
vn 0.9371 0.1251 0.3260
vn 0.3326 -0.9431 -0.0000
vn 0.1641 0.9864 -0.0000
vn 0.1641 -0.9864 -0.0000
vn 1.0000 -0.0000 -0.0000
vn 0.9861 -0.0000 0.1661
vn 0.4653 -0.8483 0.2528
vn 0.4653 0.8483 0.2528
vn 0.2722 -0.6699 0.6907
vn 0.4504 -0.8928 -0.0000
vn 0.4504 0.8928 -0.0000
vn -1.0000 -0.0000 -0.0000
vn 0.8403 -0.0000 0.5421
vn 0.2722 0.6699 0.6907
vn 0.4630 0.8339 -0.3006
vn 0.4630 -0.8339 -0.3006
vn 0.9771 -0.0000 -0.2128
vn 0.4749 -0.8800 -0.0000
vn -0.4749 0.8800 -0.0000
vn 0.4749 0.8800 -0.0000
vn -0.4749 -0.8800 -0.0000
vn 0.5161 -0.0000 0.8565
vn -0.2666 -0.9638 -0.0000
vn -0.2666 0.9638 -0.0000
vn 0.9292 -0.0000 0.3695
vn -0.1217 -0.9926 -0.0000
vn -0.1217 0.9926 -0.0000
vn 0.5161 -0.0000 -0.8565
vn -0.0264 0.9997 -0.0000
vn -0.1205 -0.9927 -0.0000
vn -0.1205 0.9927 -0.0000
vn 0.9292 -0.0000 -0.3695
vn -0.9130 0.0178 -0.4076
vn -0.8172 -0.0000 -0.5763
vn -0.8172 -0.0000 0.5763
vn -0.0264 -0.9997 -0.0000
vn -0.1846 0.9828 -0.0000
vn -0.9327 0.0285 0.3596
vn -0.1518 -0.9884 -0.0000
vn -0.1629 0.9866 -0.0000
vn -0.9351 0.1194 -0.3336
vn -0.9371 0.1251 0.3260
vn -0.3326 -0.9431 -0.0000
vn -0.1641 0.9864 -0.0000
vn -0.1641 -0.9864 -0.0000
vn -0.9861 -0.0000 0.1661
vn -0.4653 -0.8483 0.2528
vn -0.4653 0.8483 0.2528
vn -0.2722 -0.6699 0.6907
vn -0.4504 -0.8928 -0.0000
vn -0.4504 0.8928 -0.0000
vn -0.8403 -0.0000 0.5421
vn -0.2722 0.6699 0.6907
vn -0.4630 0.8339 -0.3006
vn -0.4630 -0.8339 -0.3006
vn -0.9771 -0.0000 -0.2128
vt 0.375000 0.375000
vt 0.625000 0.375000
vt 0.625000 0.500000
vt 0.375000 0.500000
vt 0.625000 0.750000
vt 0.375000 0.750000
vt 0.625000 0.750000
vt 0.250000 0.500000
vt 0.250000 0.750000
vt 0.750000 0.500000
vt 0.750000 0.750000
vt 0.625000 0.875000
vt 0.375000 0.875000
vt 0.625000 0.500000
vt 0.000000 0.000000
vt 0.375000 0.000000
vt 0.625000 0.000000
vt 0.625000 0.250000
vt 0.375000 0.250000
vt 0.625000 1.000000
vt 0.375000 1.000000
vt 0.875000 0.500000
vt 0.875000 0.750000
vt 0.125000 0.500000
vt 0.125000 0.750000
s 0
f 5/1/1 6/2/1 4/3/1 3/4/1
f 28/5/2 27/6/2 11/6/2 12/7/2
f 5/8/3 3/4/3 1/6/3 7/9/3
f 4/3/4 6/10/4 8/11/4 2/7/4
f 1/6/5 2/7/5 8/12/5 7/13/5
f 12/7/6 11/6/6 15/6/6 16/7/6
f 27/6/7 29/4/7 10/4/7 11/6/7
f 30/14/8 28/5/8 12/7/8 9/3/8
f 29/4/9 30/14/9 9/3/9 10/4/9
f 13/3/10 16/7/10 20/7/10 17/3/10
f 11/6/11 10/4/11 14/4/11 15/6/11
f 9/3/12 12/7/12 16/7/12 13/3/12
f 10/4/13 9/3/13 13/3/13 14/4/13
f 18/4/14 17/3/14 21/3/14 22/4/14
f 14/4/15 13/3/15 17/3/15 18/4/15
f 16/7/16 15/6/16 19/6/16 20/7/16
f 15/6/17 14/4/17 18/4/17 19/6/17
f 21/3/18 24/7/18 26/7/18 25/3/18
f 20/7/19 19/6/19 23/6/19 24/7/19
f 19/6/20 18/4/20 22/4/20 23/6/20
f 17/3/21 20/7/21 24/7/21 21/3/21
f 22/4/22 21/3/22 25/4/22
f 24/7/23 23/6/23 26/7/23
f 23/6/24 22/4/24 25/4/24 26/6/24
f 3/4/9 4/3/9 30/14/9 29/4/9
f 4/3/25 2/7/25 28/5/25 30/14/25
f 1/6/26 3/4/26 29/4/26 27/6/26
f 2/7/2 1/6/2 27/6/2 28/5/2
f 48/3/27 47/4/27 41/4/27 40/3/27
f 33/4/28 34/3/28 32/7/28 31/6/28
f 35/8/29 33/4/29 31/6/29 37/9/29
f 34/3/30 36/10/30 38/11/30 32/7/30
f 37/9/31 31/6/31 44/6/31 45/9/31
f 42/1/1 39/2/1 40/3/1 41/4/1
f 47/4/32 49/8/32 42/8/32 41/4/32
f 50/10/33 48/3/33 40/3/33 39/10/33
f 49/15/34 50/15/34 39/15/34 42/15/34
f 44/6/5 43/7/5 46/12/5 45/13/5
f 38/15/34 37/15/34 45/15/34 46/15/34
f 31/6/35 32/7/35 43/7/35 44/6/35
f 32/7/36 38/11/36 46/11/36 43/7/36
f 35/15/34 36/15/34 50/15/34 49/15/34
f 36/10/37 34/3/37 48/3/37 50/10/37
f 33/4/38 35/8/38 49/8/38 47/4/38
f 34/3/39 33/4/39 47/4/39 48/3/39
f 51/16/34 52/17/34 54/18/34 53/19/34
f 59/1/1 60/2/1 58/3/1 57/4/1
f 57/4/27 58/3/27 56/7/27 55/6/27
f 61/13/5 62/12/5 52/20/5 51/21/5
f 59/8/40 57/4/40 55/6/40 61/9/40
f 60/10/41 54/22/41 52/23/41 62/11/41
f 58/3/42 60/10/42 62/11/42 56/7/42
f 53/24/43 59/8/43 61/9/43 51/25/43
f 55/6/5 56/7/5 62/12/5 61/13/5
f 53/19/1 54/18/1 60/2/1 59/1/1
f 5/1/1 65/4/1 66/3/1 6/2/1
f 86/5/44 70/7/44 69/6/44 85/6/44
f 5/8/45 7/9/45 63/6/45 65/4/45
f 66/3/46 64/7/46 8/11/46 6/10/46
f 63/6/5 7/13/5 8/12/5 64/7/5
f 70/7/47 74/7/47 73/6/47 69/6/47
f 85/6/48 69/6/48 68/4/48 87/4/48
f 88/14/49 67/3/49 70/7/49 86/5/49
f 87/4/50 68/4/50 67/3/50 88/14/50
f 71/3/51 75/3/51 78/7/51 74/7/51
f 69/6/52 73/6/52 72/4/52 68/4/52
f 67/3/53 71/3/53 74/7/53 70/7/53
f 68/4/54 72/4/54 71/3/54 67/3/54
f 76/4/55 80/4/55 79/3/55 75/3/55
f 72/4/56 76/4/56 75/3/56 71/3/56
f 74/7/57 78/7/57 77/6/57 73/6/57
f 73/6/58 77/6/58 76/4/58 72/4/58
f 79/3/59 83/3/59 84/7/59 82/7/59
f 78/7/60 82/7/60 81/6/60 77/6/60
f 77/6/61 81/6/61 80/4/61 76/4/61
f 75/3/62 79/3/62 82/7/62 78/7/62
f 80/4/63 83/4/63 79/3/63
f 82/7/64 84/7/64 81/6/64
f 81/6/65 84/6/65 83/4/65 80/4/65
f 65/4/50 87/4/50 88/14/50 66/3/50
f 66/3/66 88/14/66 86/5/66 64/7/66
f 63/6/67 85/6/67 87/4/67 65/4/67
f 64/7/44 86/5/44 85/6/44 63/6/44
f 98/3/34 93/3/34 94/4/34 97/4/34
f 91/4/68 89/6/68 90/7/68 92/3/68
f 35/8/69 37/9/69 89/6/69 91/4/69
f 92/3/70 90/7/70 38/11/70 36/10/70
f 37/9/71 45/9/71 96/6/71 89/6/71
f 42/1/1 94/4/1 93/3/1 39/2/1
f 97/4/72 94/4/72 42/8/72 49/8/72
f 50/10/73 39/10/73 93/3/73 98/3/73
f 96/6/5 45/13/5 46/12/5 95/7/5
f 89/6/74 96/6/74 95/7/74 90/7/74
f 90/7/75 95/7/75 46/11/75 38/11/75
f 36/10/76 50/10/76 98/3/76 92/3/76
f 91/4/77 97/4/77 49/8/77 35/8/77
f 92/3/78 98/3/78 97/4/78 91/4/78
f 99/16/27 101/19/27 102/18/27 100/17/27
f 59/1/1 105/4/1 106/3/1 60/2/1
f 105/4/34 103/6/34 104/7/34 106/3/34
f 61/13/5 99/21/5 100/20/5 62/12/5
f 59/8/43 61/9/43 103/6/43 105/4/43
f 60/10/42 62/11/42 100/23/42 102/22/42
f 106/3/41 104/7/41 62/11/41 60/10/41
f 101/24/40 99/25/40 61/9/40 59/8/40
f 103/6/5 61/13/5 62/12/5 104/7/5
f 101/19/1 59/1/1 60/2/1 102/18/1
