# Blender 4.0.2
# www.blender.org
o SwordOverlay
v 0.112500 -0.036064 1.500000
v 0.112500 0.036064 1.500000
v 0.112500 -0.036064 -1.002486
v 0.112500 0.036064 -1.002486
v 0.000000 -0.050000 -1.002486
v 0.000000 0.050000 -1.002486
v 0.000000 -0.050000 1.500000
v 0.000000 0.050000 1.500000
v 0.168750 0.000000 -1.002486
v 0.000000 0.000000 -1.819485
v 0.168750 0.000000 1.500000
v 0.112500 0.005191 -1.555354
v 0.112500 -0.005191 -1.555354
v 0.168750 0.000000 -1.212970
v 0.140625 0.005873 -1.384162
v 0.112500 0.025854 -1.278920
v 0.112500 -0.025854 -1.278920
v 0.000000 0.038296 -1.410985
v 0.000000 -0.038296 -1.410985
v 0.140625 -0.005873 -1.384162
v 0.100000 -0.076859 1.678800
v 0.100000 0.076859 1.678800
v 0.100000 -0.076859 1.478800
v 0.100000 0.076859 1.478800
v 0.000000 -0.076859 1.478800
v 0.000000 0.076859 1.478800
v 0.000000 -0.076859 1.678800
v 0.000000 0.076859 1.678800
v 0.316276 0.059405 1.500106
v 0.316276 -0.059405 1.500106
v 0.316276 -0.059405 1.657493
v 0.316276 0.059405 1.657493
v 0.474527 0.039185 1.537878
v 0.474527 -0.039185 1.537878
v 0.474527 -0.039185 1.619722
v 0.474527 0.039185 1.619722
v 0.100000 -0.042228 1.878916
v 0.100000 0.042228 1.878916
v 0.100000 -0.042228 1.678916
v 0.100000 0.042228 1.678916
v 0.000000 -0.067114 1.678916
v 0.000000 0.067114 1.678916
v 0.000000 -0.067114 1.878916
v 0.000000 0.067114 1.878916
v 0.119944 0.058427 2.679968
v 0.119944 -0.058427 2.679968
v 0.000000 -0.093060 2.679566
v 0.000000 0.093060 2.679566
v 0.000000 -0.067114 2.112191
v 0.000000 -0.067114 2.345467
v 0.000000 -0.067955 2.575718
v 0.000000 0.067955 2.575718
v 0.000000 0.067114 2.345467
v 0.000000 0.067114 2.112191
v 0.096947 0.042228 2.112191
v 0.089316 0.042228 2.345467
v 0.087009 0.042731 2.575868
v 0.087009 -0.042731 2.575868
v 0.089316 -0.042228 2.345467
v 0.096947 -0.042228 2.112191
v 0.048212 0.043932 2.820656
v 0.048212 -0.043932 2.820656
v 0.000000 -0.069823 2.820656
v 0.000000 0.069823 2.820656
v 0.032329 0.014791 2.856032
v 0.032329 -0.014791 2.856032
v 0.000000 -0.023508 2.856032
v 0.000000 0.023508 2.856032
v -0.112500 -0.036064 1.500000
v -0.112500 0.036064 1.500000
v -0.112500 -0.036064 -1.002486
v -0.112500 0.036064 -1.002486
v -0.168750 0.000000 -1.002486
v -0.168750 0.000000 1.500000
v -0.112500 0.005191 -1.555354
v -0.112500 -0.005191 -1.555354
v -0.168750 0.000000 -1.212970
v -0.140625 0.005873 -1.384162
v -0.112500 0.025854 -1.278920
v -0.112500 -0.025854 -1.278920
v -0.140625 -0.005873 -1.384162
v -0.100000 -0.076859 1.678800
v -0.100000 0.076859 1.678800
v -0.100000 -0.076859 1.478800
v -0.100000 0.076859 1.478800
v -0.316276 0.059405 1.500106
v -0.316276 -0.059405 1.500106
v -0.316276 -0.059405 1.657493
v -0.316276 0.059405 1.657493
v -0.474527 0.039185 1.537878
v -0.474527 -0.039185 1.537878
v -0.474527 -0.039185 1.619722
v -0.474527 0.039185 1.619722
v -0.100000 -0.042228 1.878916
v -0.100000 0.042228 1.878916
v -0.100000 -0.042228 1.678916
v -0.100000 0.042228 1.678916
v -0.119944 0.058427 2.679968
v -0.119944 -0.058427 2.679968
v -0.096947 0.042228 2.112191
v -0.089316 0.042228 2.345467
v -0.087009 0.042731 2.575868
v -0.087009 -0.042731 2.575868
v -0.089316 -0.042228 2.345467
v -0.096947 -0.042228 2.112191
v -0.048212 0.043932 2.820656
v -0.048212 -0.043932 2.820656
v -0.032329 0.014791 2.856032
v -0.032329 -0.014791 2.856032
vn 0.1801 -0.9800 -0.0844
vn -0.0000 -0.0000 1.0000
vn 0.1229 -0.9924 -0.0000
vn 0.1229 0.9924 -0.0000
vn 0.9200 -0.0000 -0.3919
vn 0.5397 -0.8418 -0.0000
vn 0.5397 0.8418 -0.0000
vn 0.4284 0.9018 -0.0567
vn 0.9868 -0.0000 -0.1621
vn 0.4284 -0.9018 -0.0567
vn 0.1801 0.9800 -0.0844
vn -1.0000 -0.0000 -0.0000
vn 0.1347 0.9904 -0.0317
vn 0.4903 -0.8714 -0.0183
vn 0.4903 0.8714 -0.0183
vn 0.1347 -0.9904 -0.0317
vn -0.0000 -0.0000 -1.0000
vn 0.0980 -0.0000 0.9952
vn -0.0000 -1.0000 -0.0000
vn -0.0000 1.0000 -0.0000
vn 0.2322 -0.0000 0.9727
vn 0.0804 -0.9968 -0.0000
vn 0.0804 0.9968 -0.0000
vn 0.0980 -0.0000 -0.9952
vn 1.0000 -0.0000 -0.0000
vn 0.1267 -0.9919 -0.0000
vn 0.1267 0.9919 -0.0000
vn 0.2322 -0.0000 -0.9727
vn 0.2415 -0.9704 -0.0000
vn 0.2415 0.9704 -0.0000
vn 0.8909 -0.0000 0.4542
vn 0.9534 -0.0000 -0.3016
vn 0.2712 0.9355 -0.2265
vn 0.2712 -0.9355 -0.2265
vn 0.2450 -0.9695 0.0016
vn 0.2582 -0.9661 0.0042
vn 0.2734 -0.9619 -0.0014
vn 0.2450 0.9695 0.0016
vn 0.2582 0.9661 0.0042
vn 0.2734 0.9619 -0.0014
vn 0.9999 -0.0000 0.0131
vn 0.9995 -0.0000 0.0327
vn 0.9999 -0.0000 0.0100
vn 0.2698 0.6278 0.7301
vn 0.3308 -0.9206 0.2075
vn 0.3308 0.9206 0.2075
vn 0.9123 -0.0000 0.4096
vn 0.2698 -0.6278 0.7301
vn -0.1801 -0.9800 -0.0844
vn -0.1229 -0.9924 -0.0000
vn -0.1229 0.9924 -0.0000
vn -0.9200 -0.0000 -0.3919
vn -0.5397 -0.8418 -0.0000
vn -0.5397 0.8418 -0.0000
vn -0.4284 0.9018 -0.0567
vn -0.9868 -0.0000 -0.1621
vn -0.4284 -0.9018 -0.0567
vn -0.1801 0.9800 -0.0844
vn -0.1347 0.9904 -0.0317
vn -0.4903 -0.8714 -0.0183
vn -0.4903 0.8714 -0.0183
vn -0.1347 -0.9904 -0.0317
vn -0.0980 -0.0000 0.9952
vn -0.2322 -0.0000 0.9727
vn -0.0804 -0.9968 -0.0000
vn -0.0804 0.9968 -0.0000
vn -0.0980 -0.0000 -0.9952
vn -0.1267 -0.9919 -0.0000
vn -0.1267 0.9919 -0.0000
vn -0.2322 -0.0000 -0.9727
vn -0.2415 -0.9704 -0.0000
vn -0.2415 0.9704 -0.0000
vn -0.8909 -0.0000 0.4542
vn -0.9534 -0.0000 -0.3016
vn -0.2712 0.9355 -0.2265
vn -0.2712 -0.9355 -0.2265
vn -0.2450 -0.9695 0.0016
vn -0.2582 -0.9661 0.0042
vn -0.2734 -0.9619 -0.0014
vn -0.2450 0.9695 0.0016
vn -0.2582 0.9661 0.0042
vn -0.2734 0.9619 -0.0014
vn -0.9999 -0.0000 0.0131
vn -0.9995 -0.0000 0.0327
vn -0.9999 -0.0000 0.0100
vn -0.2698 0.6278 0.7301
vn -0.3308 -0.9206 0.2075
vn -0.3308 0.9206 0.2075
vn -0.9123 -0.0000 0.4096
vn -0.2698 -0.6278 0.7301
vt 0.375000 0.500000
vt 0.250000 0.500000
vt 0.625000 0.750000
vt 0.375000 0.750000
vt 0.250000 0.750000
vt 0.625000 0.500000
vt 0.750000 0.500000
vt 0.750000 0.750000
vt 0.625000 0.875000
vt 0.375000 0.875000
vt 0.625000 0.375000
vt 0.500000 0.500000
vt 0.000000 0.000000
vt 0.375000 0.375000
s 0
f 17/1/1 19/2/1 10/2/1 13/1/1
f 2/3/2 1/4/2 11/3/2
f 5/2/3 3/1/3 1/4/3 7/5/3
f 4/6/4 6/7/4 8/8/4 2/3/4
f 1/4/2 2/3/2 8/9/2 7/10/2
f 10/11/5 12/6/5 13/1/5
f 1/4/6 3/1/6 9/1/6 11/4/6
f 4/6/7 2/3/7 11/3/7 9/6/7
f 16/6/8 14/6/8 15/6/8 12/6/8
f 13/1/9 12/6/9 15/12/9 14/1/9 20/1/9
f 14/1/10 17/1/10 13/1/10 20/1/10
f 18/7/11 16/6/11 12/6/11 10/7/11
f 19/13/12 18/13/12 10/13/12
f 5/13/12 6/13/12 18/13/12 19/13/12
f 6/7/13 4/6/13 16/6/13 18/7/13
f 9/1/14 3/1/14 17/1/14 14/1/14
f 4/6/15 9/6/15 14/6/15 16/6/15
f 3/1/16 5/2/16 19/2/16 17/1/16
f 25/14/17 26/11/17 24/6/17 23/1/17
f 22/3/18 21/4/18 31/4/18 32/3/18
f 25/2/19 23/1/19 21/4/19 27/5/19
f 24/6/20 26/7/20 28/8/20 22/3/20
f 21/4/2 22/3/2 28/9/2 27/10/2
f 32/3/21 31/4/21 35/4/21 36/3/21
f 21/4/22 23/1/22 30/1/22 31/4/22
f 24/6/23 22/3/23 32/3/23 29/6/23
f 23/1/24 24/6/24 29/6/24 30/1/24
f 34/1/25 33/6/25 36/3/25 35/4/25
f 31/4/26 30/1/26 34/1/26 35/4/26
f 29/6/27 32/3/27 36/3/27 33/6/27
f 30/1/28 29/6/28 33/6/28 34/1/28
f 41/14/17 42/11/17 40/6/17 39/1/17
f 39/1/25 40/6/25 38/3/25 37/4/25
f 41/2/29 39/1/29 37/4/29 43/5/29
f 40/6/30 42/7/30 44/8/30 38/3/30
f 52/13/12 51/13/12 47/13/12 48/13/12
f 46/4/31 45/3/31 61/3/31 62/4/31
f 58/4/32 57/3/32 45/3/32 46/4/32
f 57/3/33 52/8/33 48/8/33 45/3/33
f 51/5/34 58/4/34 46/4/34 47/5/34
f 43/5/35 37/4/35 60/4/35 49/5/35
f 49/5/36 60/4/36 59/4/36 50/5/36
f 50/5/37 59/4/37 58/4/37 51/5/37
f 38/3/38 44/8/38 54/8/38 55/3/38
f 55/3/39 54/8/39 53/8/39 56/3/39
f 56/3/40 53/8/40 52/8/40 57/3/40
f 37/4/41 38/3/41 55/3/41 60/4/41
f 60/4/42 55/3/42 56/3/42 59/4/42
f 59/4/43 56/3/43 57/3/43 58/4/43
f 44/13/12 43/13/12 49/13/12 54/13/12
f 54/13/12 49/13/12 50/13/12 53/13/12
f 53/13/12 50/13/12 51/13/12 52/13/12
f 61/3/44 64/8/44 68/8/44 65/3/44
f 48/13/12 47/13/12 63/13/12 64/13/12
f 47/5/45 46/4/45 62/4/45 63/5/45
f 45/3/46 48/8/46 64/8/46 61/3/46
f 66/4/2 65/3/2 68/9/2 67/10/2
f 62/4/47 61/3/47 65/3/47 66/4/47
f 64/13/12 63/13/12 67/13/12 68/13/12
f 63/5/48 62/4/48 66/4/48 67/5/48
f 80/1/49 76/1/49 10/2/49 19/2/49
f 70/3/2 74/3/2 69/4/2
f 5/2/50 7/5/50 69/4/50 71/1/50
f 72/6/51 70/3/51 8/8/51 6/7/51
f 69/4/2 7/10/2 8/9/2 70/3/2
f 10/11/52 76/1/52 75/6/52
f 69/4/53 74/4/53 73/1/53 71/1/53
f 72/6/54 73/6/54 74/3/54 70/3/54
f 79/6/55 75/6/55 78/6/55 77/6/55
f 76/1/56 81/1/56 77/1/56 78/12/56 75/6/56
f 77/1/57 81/1/57 76/1/57 80/1/57
f 18/7/58 10/7/58 75/6/58 79/6/58
f 6/7/59 18/7/59 79/6/59 72/6/59
f 73/1/60 77/1/60 80/1/60 71/1/60
f 72/6/61 79/6/61 77/6/61 73/6/61
f 71/1/62 80/1/62 19/2/62 5/2/62
f 25/14/17 84/1/17 85/6/17 26/11/17
f 83/3/63 89/3/63 88/4/63 82/4/63
f 25/2/19 27/5/19 82/4/19 84/1/19
f 85/6/20 83/3/20 28/8/20 26/7/20
f 82/4/2 27/10/2 28/9/2 83/3/2
f 89/3/64 93/3/64 92/4/64 88/4/64
f 82/4/65 88/4/65 87/1/65 84/1/65
f 85/6/66 86/6/66 89/3/66 83/3/66
f 84/1/67 87/1/67 86/6/67 85/6/67
f 91/1/12 92/4/12 93/3/12 90/6/12
f 88/4/68 92/4/68 91/1/68 87/1/68
f 86/6/69 90/6/69 93/3/69 89/3/69
f 87/1/70 91/1/70 90/6/70 86/6/70
f 41/14/17 96/1/17 97/6/17 42/11/17
f 96/1/12 94/4/12 95/3/12 97/6/12
f 41/2/71 43/5/71 94/4/71 96/1/71
f 97/6/72 95/3/72 44/8/72 42/7/72
f 99/4/73 107/4/73 106/3/73 98/3/73
f 103/4/74 99/4/74 98/3/74 102/3/74
f 102/3/75 98/3/75 48/8/75 52/8/75
f 51/5/76 47/5/76 99/4/76 103/4/76
f 43/5/77 49/5/77 105/4/77 94/4/77
f 49/5/78 50/5/78 104/4/78 105/4/78
f 50/5/79 51/5/79 103/4/79 104/4/79
f 95/3/80 100/3/80 54/8/80 44/8/80
f 100/3/81 101/3/81 53/8/81 54/8/81
f 101/3/82 102/3/82 52/8/82 53/8/82
f 94/4/83 105/4/83 100/3/83 95/3/83
f 105/4/84 104/4/84 101/3/84 100/3/84
f 104/4/85 103/4/85 102/3/85 101/3/85
f 106/3/86 108/3/86 68/8/86 64/8/86
f 47/5/87 63/5/87 107/4/87 99/4/87
f 98/3/88 106/3/88 64/8/88 48/8/88
f 109/4/2 67/10/2 68/9/2 108/3/2
f 107/4/89 109/4/89 108/3/89 106/3/89
f 63/5/90 67/5/90 109/4/90 107/4/90
l 15 20
l 78 81
